<svg width="12" height="16" viewBox="0 0 12 16" fill="none" xmlns="http://www.w3.org/2000/svg">
<path d="M0 1.14282H11.4286V16H0V1.14282Z" fill="#1080D1"/>
<path opacity="0.2" d="M0 1.14282H1.14286V16H0V1.14282Z" fill="white"/>
<path opacity="0.2" d="M1.14285 1.14282H1.71428V16H1.14285V1.14282Z" fill="#212121"/>
<path opacity="0.8" d="M9.02856 5.71432H3.59999C3.54284 5.71432 3.42856 5.65718 3.42856 5.54289V3.02861C3.42856 2.91432 3.4857 2.85718 3.59999 2.85718H9.02856C9.0857 2.85718 9.14284 2.91432 9.14284 3.02861V5.60004C9.14284 5.65718 9.0857 5.71432 9.02856 5.71432Z" fill="white"/>
<path d="M11.4286 1.14286H0L0.571429 0H10.8571L11.4286 1.14286Z" fill="#015491"/>
<path opacity="0.2" d="M1.14286 1.14286H0L0.571429 0H1.71429L1.14286 1.14286Z" fill="white"/>
<path opacity="0.2" d="M1.71428 1.14286H1.14285L1.71428 0H2.28571L1.71428 1.14286Z" fill="#212121"/>
<path opacity="0.8" d="M11.3143 0.857195H0.571442L0.857156 0.285767H11.0286L11.3143 0.857195Z" fill="white"/>
<path d="M6.29393 13.551L6.64003 13H7.17526L6.5595 13.9056L7.29999 15H6.76075L6.30604 14.2794L5.85535 15H5.29999L6.04047 13.9282L5.40057 13H5.93981L6.29393 13.551Z" fill="white"/>
</svg>
