<svg width="16" height="16" viewBox="0 0 16 16" fill="none" xmlns="http://www.w3.org/2000/svg">
<path d="M2 0V16H14V4L10 0H2Z" fill="#FCEFCF"/>
<path opacity="0.65" d="M10 3.98V0L14 4L10 3.98Z" fill="white"/>
<path opacity="0.2" d="M13 5V10L9 5H13Z" fill="#212121"/>
<path d="M2 0V16H14V4H13.988L13.992 3.992L10.008 0.006L10 0.014V0H2ZM3 1H9V5H13V15H3V1ZM10 1.412L12.586 4H10V1.412Z" fill="#C7C7C7"/>
<rect x="4" y="13" width="7" height="1" fill="#999999" fill-opacity="0.48"/>
<rect x="4" y="11" width="6" height="1" fill="#999999" fill-opacity="0.48"/>
<rect x="4" y="7" width="6" height="1" fill="#999999" fill-opacity="0.48"/>
<rect x="4" y="9" width="7" height="1" fill="#999999" fill-opacity="0.48"/>
<rect x="4" y="5" width="4" height="1" fill="#999999" fill-opacity="0.48"/>
<rect x="4" y="2" width="4" height="2" fill="#999999" fill-opacity="0.48"/>
</svg>
