<svg width="169" height="169" viewBox="0 0 169 169" fill="none" xmlns="http://www.w3.org/2000/svg">
<rect width="169" height="169" fill="#1080D1"/>
<g clip-path="url(#clip0_214_22)">
<path d="M53.7875 32.0001C46.7246 32.0001 40.9492 37.7997 40.9492 44.8626V124.162C40.9492 131.225 46.7242 137 53.7875 137H57.9505V32.0001H53.7875ZM64.5217 32.0001V137H124.757C126.57 137.008 128.042 135.544 128.051 133.731V35.2936C128.055 34.42 127.706 33.5792 127.091 32.9598C126.471 32.3446 125.631 31.9959 124.757 32L64.5217 32.0001ZM89.7259 62.1551H96.2884V66.5315C98.8929 67.0072 101.309 68.0326 103.409 69.4928L104.184 68.7176L106.485 66.392L111.136 71.0185L108.035 74.1193C109.495 76.2193 110.521 78.6351 110.997 81.2396H115.348V87.8021H110.992C110.517 90.3984 109.491 92.81 108.039 94.9018L108.815 95.677L111.14 97.9985L106.489 102.625L103.4 99.5365C101.304 100.988 98.8927 102.018 96.2924 102.49V106.862H89.7258V102.486C87.1336 102.006 84.726 100.984 82.6342 99.5365L81.8508 100.32L79.5294 102.621L74.8782 97.9944L77.2037 95.6729L77.9789 94.8977C76.5229 92.8018 75.5016 90.3942 75.0258 87.8021H70.6618V81.2395H75.0217C75.4934 78.635 76.5188 76.2151 77.9789 74.1193L74.8782 71.0185L79.5294 66.392L81.8508 68.7176L82.626 69.4846C84.7219 68.0326 87.1337 67.0113 89.7258 66.5355L89.7259 62.1551ZM93.0194 72.7622C86.502 72.7622 81.272 77.9958 81.272 84.5169C81.272 91.0343 86.5015 96.2391 93.0194 96.2391C99.5373 96.2391 104.742 91.0383 104.742 84.5169C104.742 77.9996 99.5408 72.7622 93.0194 72.7622V72.7622Z" fill="white"/>
</g>
<defs>
<clipPath id="clip0_214_22">
<rect width="105" height="105" fill="white" transform="translate(32 32)"/>
</clipPath>
</defs>
</svg>
