<?xml version="1.0" encoding="UTF-8" standalone="no"?>
<!DOCTYPE svg PUBLIC "-//W3C//DTD SVG 1.1//EN" "http://www.w3.org/Graphics/SVG/1.1/DTD/svg11.dtd">
<svg width="100%" height="100%" viewBox="0 0 16 16" version="1.1" xmlns="http://www.w3.org/2000/svg" xmlns:xlink="http://www.w3.org/1999/xlink" xml:space="preserve" xmlns:serif="http://www.serif.com/" style="fill-rule:evenodd;clip-rule:evenodd;stroke-linejoin:round;stroke-miterlimit:2;">
    <g>
        <path d="M2,0L2,16L14,16L14,4L10,0L2,0Z" style="fill:rgb(16,128,209);fill-rule:nonzero;"/>
        <g transform="matrix(1,0,0,1,-0.279591,-0.25944)">
            <path d="M7.266,10.765L8.491,10.765L8.491,10.079C8.483,9.782 8.551,9.53 8.696,9.323L9.786,7.823C10.036,7.488 10.164,7.068 10.172,6.564C10.164,5.853 9.928,5.288 9.463,4.87C9.014,4.472 8.477,4.269 7.852,4.261C7.239,4.269 6.711,4.488 6.27,4.917C5.821,5.343 5.592,5.888 5.584,6.552L5.584,6.792L6.809,6.792C6.809,6.312 6.922,5.972 7.149,5.773C7.348,5.581 7.604,5.486 7.916,5.486C8.17,5.486 8.405,5.577 8.62,5.761C8.831,5.952 8.94,6.216 8.948,6.552C8.948,6.798 8.848,7.062 8.649,7.343L7.577,8.831C7.452,9.007 7.368,9.183 7.325,9.359C7.286,9.542 7.266,9.749 7.266,9.98L7.266,10.765ZM7.266,12.874L8.491,12.874L8.491,11.65L7.266,11.65L7.266,12.874Z" style="fill:white;fill-rule:nonzero;"/>
        </g>
        <path d="M10,4L10,0L14,4L10,4Z" style="fill:white;fill-opacity:0.65;fill-rule:nonzero;"/>
        <path d="M14,4L14,9L10,4L14,4Z" style="fill:rgb(33,33,33);fill-opacity:0.15;fill-rule:nonzero;"/>
    </g>
</svg>
