<svg width="24" height="24" viewBox="0 0 24 24" fill="none" xmlns="http://www.w3.org/2000/svg">
<circle cx="12" cy="12" r="12" fill="#ADADAD"/>
<path d="M12 5C10.8065 5 9.66193 5.47411 8.81802 6.31802C7.97411 7.16193 7.5 8.30653 7.5 9.5C7.5 11.263 9 13 9 15V17L9.862 18.724C9.90356 18.8069 9.96739 18.8767 10.0463 18.9254C10.1253 18.9742 10.2162 19 10.309 19H13.691C13.7838 19 13.8747 18.9742 13.9537 18.9254C14.0326 18.8767 14.0964 18.8069 14.138 18.724L15 17V15C15 13 16.5 11.263 16.5 9.5C16.5 8.30653 16.0259 7.16193 15.182 6.31802C14.3381 5.47411 13.1935 5 12 5ZM8.5 9.5C8.5 7.57 10.07 6 12 6C13.93 6 15.5 7.57 15.5 9.5C15.5 10.154 15.19 10.901 14.862 11.692C14.571 12.394 14.251 13.164 14.096 14H9.904C9.749 13.164 9.429 12.394 9.138 11.692C8.81 10.901 8.5 10.154 8.5 9.5ZM13.382 18H10.618L10.118 17H13.882L13.382 18ZM14 16H10V15H14V16Z" fill="black"/>
<path d="M12 7C11.337 7 10.7011 7.26339 10.2322 7.73223C9.76339 8.20107 9.5 8.83696 9.5 9.5H10.5C10.5 8.673 11.173 8 12 8V7Z" fill="black"/>
</svg>
