<svg width="24" height="24" viewBox="0 0 24 24" fill="none" xmlns="http://www.w3.org/2000/svg">
<circle cx="12" cy="12" r="12" fill="#C5DDF3"/>
<path d="M10.9688 6.07031C10.9688 5.92594 11.0822 5.8125 11.2266 5.8125H12.7734C12.9178 5.8125 13.0312 5.92594 13.0312 6.07031V7.61719C13.0312 7.76156 12.9178 7.875 12.7734 7.875H11.2266C11.0822 7.875 10.9688 7.76156 10.9688 7.61719V6.07031ZM14.8359 18.1875H9.16406C9.09569 18.1875 9.03011 18.1603 8.98176 18.112C8.93341 18.0636 8.90625 17.9981 8.90625 17.9297V16.3828C8.90625 16.3144 8.93341 16.2489 8.98176 16.2005C9.03011 16.1522 9.09569 16.125 9.16406 16.125H10.9688V12H10.1953C10.0509 12 9.9375 11.8866 9.9375 11.7422V10.1953C9.9375 10.1269 9.96466 10.0614 10.013 10.013C10.0614 9.96466 10.1269 9.9375 10.1953 9.9375H12.7734C12.8418 9.9375 12.9074 9.96466 12.9557 10.013C13.0041 10.0614 13.0312 10.1269 13.0312 10.1953V16.125H14.8359C14.9043 16.125 14.9699 16.1522 15.0182 16.2005C15.0666 16.2489 15.0938 16.3144 15.0938 16.3828V17.9297C15.0938 17.9981 15.0666 18.0636 15.0182 18.112C14.9699 18.1603 14.9043 18.1875 14.8359 18.1875Z" fill="black"/>
</svg>
