<svg width="24" height="24" viewBox="0 0 24 24" fill="none" xmlns="http://www.w3.org/2000/svg">
<circle cx="12" cy="12" r="12" fill="#F6DAB1"/>
<path d="M12 18C12.8284 18 13.5 17.3284 13.5 16.5C13.5 15.6716 12.8284 15 12 15C11.1716 15 10.5 15.6716 10.5 16.5C10.5 17.3284 11.1716 18 12 18Z" fill="black"/>
<path d="M12.522 14H11.478C11.4155 14.0003 11.3551 13.9771 11.3088 13.9351C11.2626 13.8931 11.2337 13.8352 11.228 13.773L10.603 7.093C10.59 6.9545 10.6061 6.81482 10.6502 6.68289C10.6944 6.55096 10.7655 6.42969 10.8592 6.32682C10.9528 6.22396 11.0669 6.14176 11.1941 6.08548C11.3213 6.02921 11.4589 6.00009 11.598 6H12.402C12.5411 6.00009 12.6786 6.02921 12.8058 6.08548C12.9331 6.14176 13.0471 6.22396 13.1408 6.32682C13.2344 6.42969 13.3056 6.55096 13.3497 6.68289C13.3938 6.81482 13.4099 6.9545 13.397 7.093L12.771 13.773C12.7652 13.8351 12.7365 13.8928 12.6905 13.9347C12.6444 13.9767 12.5843 14 12.522 14Z" fill="black"/>
</svg>
