<svg width="24" height="24" viewBox="0 0 24 24" fill="none" xmlns="http://www.w3.org/2000/svg">
<circle cx="12" cy="12" r="12" fill="#E9B1B1"/>
<path d="M15.9002 9.49995L13.4002 12L15.9002 14.5C16.1002 14.7 16.1002 15 15.9002 15.2L15.2002 15.9C15.0002 16.1 14.7002 16.1 14.5002 15.9L12.0002 13.4L9.5002 15.9C9.3002 16.1 9.0002 16.1 8.8002 15.9L8.1002 15.2C7.9002 15 7.9002 14.7 8.1002 14.5L10.6002 12L8.1002 9.49995C7.9002 9.29995 7.9002 8.99995 8.1002 8.79995L8.8002 8.09995C9.0002 7.89995 9.3002 7.89995 9.5002 8.09995L12.0002 10.6L14.5002 8.09995C14.7002 7.89995 15.0002 7.89995 15.2002 8.09995L15.9002 8.79995C16.1002 8.99995 16.1002 9.29995 15.9002 9.49995Z" fill="black"/>
</svg>
